Coordinates
version=1
nRows=18
nColumns=22
inDegrees=yes

Units are S.I. units (second, meters, Newtons, ...)
If the header above contains a line with 'inDegrees', this indicates whether rotational values are in degrees (yes) or radians (no).

endheader
time	pelvis_tilt	pelvis_list	pelvis_rotation	pelvis_tx	pelvis_ty	pelvis_tz	hip_flexion_r	hip_adduction_r	hip_rotation_r	knee_angle_r	ankle_angle_r	subtalar_angle_r	hip_flexion_l	hip_adduction_l	hip_rotation_l	knee_angle_l	ankle_angle_l	subtalar_angle_l	lumbar_extension	lumbar_bending	lumbar_rotation
      1.06000000	      1.19136785	     -8.84984349	     20.46032041	     -0.89649447	      1.00329621	      0.66169208	     11.60834338	      9.44889147	      0.79908412	    -22.56461902	     11.21545437	     -3.59981295	     12.40297662	    -11.12962912	      4.37987596	    -59.06712704	      7.39786125	     -4.28764620	    -13.81268864	      8.36809714	      3.96035451
      1.07000000	      1.30387643	     -8.68861184	     20.95275164	     -0.89124232	      1.00355753	      0.66054389	     11.09852195	      9.37809763	      0.57515562	    -22.53582089	     11.55316146	     -3.67797988	     13.27696248	    -11.04552339	      3.97862080	    -59.54668807	      7.99602279	     -4.39980423	    -14.01817274	      8.24308157	      4.19473467
      1.08000000	      1.38961708	     -8.51410642	     21.45992962	     -0.88609070	      1.00380025	      0.65921887	     10.59963422	      9.27228534	      0.31686452	    -22.48261175	     11.86816801	     -3.76815867	     14.15535082	    -10.88437615	      3.63005769	    -59.84678349	      8.54092414	     -4.49150170	    -14.20598718	      8.10887027	      4.41495881
      1.09000000	      1.45500843	     -8.31338897	     21.96674574	     -0.88101189	      1.00403801	      0.65771672	     10.09834793	      9.12321850	      0.04407438	    -22.41159663	     12.17735999	     -3.85512064	     15.01757731	    -10.64201423	      3.30575531	    -59.97378488	      9.00308870	     -4.51174435	    -14.38219230	      7.95230703	      4.62793497
      1.10000000	      1.50227195	     -8.06806503	     22.49433016	     -0.87601390	      1.00430243	      0.65602222	      9.57791123	      8.90872315	     -0.27795568	    -22.30854241	     12.48805589	     -3.95807361	     15.85483020	    -10.30176015	      3.01340515	    -59.92684196	      9.34410655	     -4.38610286	    -14.56036952	      7.75645244	      4.79204578
      1.11000000	      1.55782180	     -7.81433473	     23.01696303	     -0.87107333	      1.00458810	      0.65421245	      9.02591994	      8.68734340	     -0.59885115	    -22.17556056	     12.79396558	     -4.00572856	     16.65237053	     -9.93796204	      2.71351425	    -59.72663512	      9.63964735	     -4.10595667	    -14.76110522	      7.55986577	      4.97964940
      1.12000000	      1.61999580	     -7.55713583	     23.55802118	     -0.86617463	      1.00488398	      0.65225273	      8.43820146	      8.46010683	     -0.94695082	    -21.99853212	     13.08822285	     -4.00988813	     17.41919271	     -9.55995574	      2.41364749	    -59.38355440	      9.88664418	     -3.74014721	    -14.97049860	      7.37214520	      5.15731513
      1.13000000	      1.68713379	     -7.30477344	     24.12224384	     -0.86129114	      1.00517141	      0.65016175	      7.81898490	      8.23791924	     -1.32565779	    -21.77797073	     13.37348879	     -3.98860080	     18.16119349	     -9.19175770	      2.09856497	    -58.90777421	     10.11069663	     -3.35974664	    -15.17788101	      7.19818681	      5.31485466
      1.14000000	      1.76589786	     -7.05661398	     24.70784235	     -0.85643672	      1.00546302	      0.64794895	      7.16060134	      8.02540262	     -1.73145800	    -21.50937316	     13.64210744	     -3.95035730	     18.87063760	     -8.83726358	      1.76955745	    -58.30752640	     10.30613067	     -2.96059869	    -15.39729012	      7.04134086	      5.46131086
      1.15000000	      1.86240634	     -6.82587795	     25.30206454	     -0.85158167	      1.00576111	      0.64568158	      6.46107937	      7.84993283	     -2.12520918	    -21.18843763	     13.87180343	     -3.89868678	     19.54496166	     -8.53319774	      1.39892931	    -57.59044939	     10.47388879	     -2.54800199	    -15.62996274	      6.90431258	      5.62920820
      1.16000000	      1.94922328	     -6.60406151	     25.89664145	     -0.84672805	      1.00601378	      0.64334865	      5.76206017	      7.68487030	     -2.54107557	    -20.85127879	     14.10053324	     -3.85754231	     20.20430154	     -8.26723881	      0.95769668	    -56.76547386	     10.61380784	     -2.25272515	    -15.84817065	      6.77343300	      5.76611024
      1.17000000	      2.03648876	     -6.39442338	     26.47543189	     -0.84188380	      1.00623478	      0.64100004	      5.05723069	      7.54328137	     -2.94665287	    -20.49754078	     14.31349380	     -3.82511929	     20.84005430	     -8.05816196	      0.42494973	    -55.84398583	     10.72432068	     -2.02956435	    -16.07072875	      6.65017481	      5.89142987
      1.18000000	      2.14243179	     -6.19115150	     27.03390355	     -0.83702480	      1.00646270	      0.63862897	      4.31905327	      7.43203065	     -3.31494058	    -20.11589713	     14.49462326	     -3.79734396	     21.42285198	     -7.90321708	     -0.19018029	    -54.82610073	     10.79943995	     -1.84892151	    -16.31512018	      6.53380030	      6.05262684
      1.19000000	      2.20744874	     -6.01214634	     27.56348146	     -0.83218310	      1.00656443	      0.63624420	      3.64894387	      7.33050725	     -3.68757975	    -19.77096944	     14.69072850	     -3.78937586	     22.02324406	     -7.79126941	     -0.90325202	    -53.72751851	     10.89474838	     -1.76665265	    -16.51204537	      6.41697989	      6.21058841
      1.20000000	      2.33050497	     -5.81522986	     28.07052175	     -0.82730544	      1.00677348	      0.63383098	      2.87461286	      7.25952359	     -3.98963253	    -19.35535362	     14.82568633	     -3.78112206	     22.51194831	     -7.72533564	     -1.70420481	    -52.53419816	     10.88498059	     -1.71725567	    -16.78823532	      6.30240500	      6.37737120
      1.21000000	      2.43202145	     -5.63436202	     28.55218313	     -0.82241718	      1.00689473	      0.63138833	      2.14034279	      7.19943978	     -4.28977369	    -18.96785899	     14.96711599	     -3.78205621	     22.98671929	     -7.69320202	     -2.59499373	    -51.26145589	     10.89546256	     -1.72130637	    -17.04092620	      6.18908798	      6.51828910
      1.22000000	      2.50920988	     -5.45606631	     29.01014427	     -0.81751762	      1.00694806	      0.62887913	      1.42920526	      7.13342816	     -4.58148277	    -18.58525633	     15.10712955	     -3.78417429	     23.43609317	     -7.65727874	     -3.54288727	    -49.90334954	     10.89990496	     -1.73623329	    -17.26966697	      6.06611932	      6.65677685
      1.23000000	      2.58659054	     -5.28099743	     29.45222164	     -0.81257959	      1.00696292	      0.62629210	      0.71092289	      7.07595769	     -4.86209513	    -18.19850231	     15.22945371	     -3.77774265	     23.83808168	     -7.62558659	     -4.53751765	    -48.46716230	     10.89276270	     -1.73694478	    -17.49598564	      5.94510814	      6.76858287
